<svg xmlns="http://www.w3.org/2000/svg" xmlns:xlink="http://www.w3.org/1999/xlink" xml:space="preserve" version="1.1" style="shape-rendering:geometricPrecision;text-rendering:geometricPrecision;image-rendering:optimizeQuality;" viewBox="0 0 50800 63500" x="0px" y="0px" fill-rule="evenodd" clip-rule="evenodd"><defs><style type="text/css">
   
    .fil0 {fill:black}
   
  </style></defs><g><path class="fil0" d="M21875 27851l680 -283c-148,283 -374,450 -680,283zm2652 -461c316,-189 168,-32 260,31 -185,153 300,168 -105,72 -245,-57 28,90 -155,-103zm-9969 82c26,-91 -173,-106 181,-208 332,-96 257,39 300,71 -16,13 -41,12 -50,37l-186 71c-85,19 -172,3 -245,29zm4486 2435c-585,-50 -1067,-196 -1588,-86 -1488,315 -2805,849 -4248,-296 -570,-452 -712,-680 -1868,-304 -324,106 -972,734 -2135,621 -516,-50 -769,-358 -1112,-673 -72,-151 57,-1762 507,-2089l693 -304c643,357 603,719 688,807 440,452 2816,-141 2816,-141 210,29 568,282 711,396 966,-26 1092,-62 1807,358 127,5 1625,-242 1781,-285 956,-267 662,-250 1669,-81 400,68 1005,55 1655,433 981,570 1722,329 2477,106 767,-225 1991,-137 2671,68 663,201 588,440 1536,531 686,67 2141,-4 2862,-315 435,-188 295,-129 802,-226 897,-173 -159,-242 1752,-336 396,-19 1605,-151 1845,-108 921,162 1984,935 2845,168 193,-173 124,-94 298,-222 251,-184 279,-382 609,-444 229,-42 756,36 958,75 589,115 1222,197 1792,122 1133,-151 685,-326 1460,-714 432,212 593,251 1134,115 213,-53 262,-78 453,-224 40,-30 120,-100 186,-161 218,-202 -45,-34 239,-197 814,-465 1487,-62 1933,490 185,484 -653,1798 -1293,2056 -1067,430 -1250,666 -2995,497 -826,-80 -738,-605 -1886,-221 -609,204 -311,165 -652,463 -699,609 -1863,673 -2716,312 -564,-239 -1344,-210 -1895,69 -750,380 -1829,679 -2733,345 -858,-317 -1744,-1260 -2424,-772 -724,520 -631,711 -1479,840 -2108,320 -2383,-576 -3854,-554 -832,13 -1148,181 -1912,388 -444,121 -558,88 -977,162 -292,52 -580,194 -970,168 -436,-28 -1219,-548 -1442,-837zm-2866 -3165c131,48 217,39 258,190 108,400 -58,194 -175,235 -113,-208 -80,-132 -83,-425zm1214 20c300,45 352,75 73,218l-73 -218zm-1214 -20l-410 254c-91,-318 -66,-432 149,-662l358 136 -97 272zm16430 367c415,-106 325,-192 546,163l-2043 80c25,-331 307,-1140 535,-1309 -32,352 -264,638 -83,930 383,-36 17,270 468,-640 116,-234 158,-513 317,-777 398,60 201,167 603,235 623,105 764,-133 1194,534 208,323 145,193 506,408l81 545 -744 -120 65 -726c-139,-3 -92,-138 -243,135 -23,-17 -54,-72 -65,-55l-278 -275c-175,106 -233,210 -394,378l55 -489c-372,206 -525,538 -520,983zm-8940 42c20,-713 468,-839 318,-1566l438 383c180,116 377,134 612,164 368,530 447,463 624,773 -192,308 -199,496 -574,644 62,-298 233,-526 122,-806 -572,199 33,253 -533,535 12,-464 238,-478 361,-925 -371,89 -471,350 -646,829 -129,352 97,140 -214,291 -240,-328 285,-827 324,-1238 -589,-192 -307,119 -832,916zm16921 -267c-605,45 -1394,76 -1880,-151 80,-169 -53,1 131,-221 360,-432 345,-69 933,-152l25 365 378 14c287,-305 540,-883 492,-1420l792 81c88,576 156,321 383,731 -27,26 -67,99 -194,176 -186,111 -144,81 -397,143 108,-283 129,-305 215,-571 -326,-123 -200,-78 -592,-72 -157,466 -282,484 -286,1077zm-9767 610c-497,31 -359,191 -658,-31 254,-144 -208,296 125,-100l362 -680c127,-386 178,-708 287,-1096l466 -158 -410 978c-270,608 -313,497 -172,1087zm827 -1532c40,-309 122,-575 269,-793l257 109 -526 684zm8521 -483c101,-287 72,-318 349,-228 -85,111 4,67 -135,150 -212,126 -54,9 -214,78zm-1152 -70l-13 -514 613 -209c-117,364 -233,563 -600,723zm-13552 -1901c442,285 155,516 609,900 263,222 875,201 1284,245 185,318 20,380 420,875 -466,467 -435,295 -907,977 -177,256 -68,236 -367,310l37 -642 -483 228c-275,-634 156,-937 -1115,-1017 -148,-506 -311,-469 -782,-608 103,-155 -21,-49 132,-153 786,-529 130,191 961,-939 168,-229 33,-73 211,-176zm2528 755l500 -58c-17,363 -29,841 -189,1121 -89,-106 -32,52 -79,-156 -24,-112 0,-143 -40,-300 -89,-352 -112,-139 -192,-607zm-8206 1023l-596 -446 111 -223c371,144 350,128 703,-157 82,117 70,112 212,192 592,-344 330,-193 689,-754 206,309 -30,680 -252,878l-867 510zm7485 -1634c138,161 17,-194 111,149 98,361 50,55 -25,211 -176,-104 -255,-53 -86,-360zm-15314 922c8,-421 667,-1091 852,-1178 0,308 -97,486 -163,838 -85,454 -222,378 -689,340zm6711 256c-56,-55 -52,112 -149,-198 -108,-348 269,-712 656,-1430 104,-192 200,-354 329,-475 2,465 -420,1133 -632,1540 -144,276 -15,309 -204,563zm1437 -2141l178 -445c255,33 238,-19 553,346 177,206 12,-69 182,270 -359,198 -174,372 -540,614l65 -490 -438 -295zm15448 1441c166,385 615,539 696,968 -267,288 -482,189 -864,375 -466,226 -177,397 -716,493 -211,-179 -629,-749 -1450,-820 -334,-30 -277,22 -622,-134 -42,-398 31,-439 104,-774 -123,-146 -426,-408 -248,-861 107,-274 1258,-849 1356,-888l62 293c137,1011 500,1387 1682,1348zm-17745 -683l-608 -242c196,-504 560,-559 1132,-795 -70,303 -312,829 -524,1037zm20560 1127c-346,564 139,1839 -1057,1806l136 448c-799,243 -634,929 -2005,743 43,-887 -533,-1516 679,-1796 1403,-324 996,-1033 983,-1516 198,-108 639,-172 779,-257 79,-48 307,-452 428,-625l-52 -875c737,-637 607,-284 1387,-640 473,361 381,153 885,556 428,342 68,173 456,490 521,425 2223,2864 2280,3223l-333 201c-586,-294 -609,-572 -902,-1115 -270,-498 -858,-417 -1480,-595l-22 -901c-176,-273 -271,-131 -282,-435 -12,-301 81,-166 248,-425 -175,-401 -248,-474 -592,-183 -666,563 -501,405 -523,865 -46,984 -715,893 -1013,1031zm-24363 -2057c-146,320 -120,256 -585,297 -16,-18 -43,-67 -52,-52 -8,16 -41,-38 -52,-50 -535,-654 217,-430 689,-195zm22330 1350c-12,-390 213,-657 397,-921 266,-383 185,-670 737,-729 -309,1216 125,737 -198,1258 -184,296 -592,431 -936,392zm-18091 -65c-29,-483 141,-482 296,-810 157,-335 147,-601 471,-762 -66,324 -550,1353 -767,1572zm10920 -846c115,-544 74,-330 -46,-845l1094 -19c-71,407 -621,734 -1048,864zm-3786 19c-202,-262 -185,-236 -190,-667 382,-155 160,-217 615,-310l-425 977zm10796 -345c26,-231 -16,-113 115,-384 149,-308 60,-204 273,-335 140,278 -203,659 -388,719zm-16655 -892c471,-18 404,-57 613,90 -178,312 -20,25 -280,239 -182,150 -51,141 -350,311 61,-336 139,-361 17,-640zm-785 -340c25,-198 36,-230 99,-357 154,72 552,490 646,615 -106,165 62,19 -167,212 -238,201 -7,67 -290,141l135 -349c-134,-123 -63,-54 -176,-121 -21,-12 -102,-51 -123,-63l-124 -78zm-4712 675l-230 -15c9,-303 76,-130 69,-556 295,-116 126,-84 455,-252l-294 823zm19942 -205c5,-701 -139,-959 474,-1178 -31,386 -86,309 -179,638l-295 540zm-7898 888c-89,-138 -172,353 61,-538 61,-235 46,-465 133,-720 79,-234 241,-283 305,-542 88,-359 0,-357 172,-680 780,-32 439,269 862,621 511,425 622,-41 920,587 -12,21 -29,29 -35,62 -6,32 -27,47 -35,60l-746 1084c-2,-228 10,-372 31,-596 54,-571 -392,-752 -543,-1244 -23,11 -57,7 -67,38l-368 175c-209,189 -648,1615 -690,1693zm9390 -1876c9,-397 92,-220 125,-616l818 283 124 677 -450 118c-229,1075 -524,659 -670,2077 -366,47 -342,111 -702,9l-26 -281c483,151 435,299 843,-811 165,-448 504,-1096 469,-1491 -248,-101 -316,-62 -531,35zm-19895 -605l521 -172 -8 342c-153,-17 -134,2 -267,-41 -299,-95 -123,-35 -246,-129zm7580 262c-359,-322 -80,-143 -507,-343 72,-249 238,-290 520,-852 8,17 16,27 19,53l219 454c-271,478 -95,447 -251,688zm12661 -774l20 -308c437,-31 1079,612 1670,925 362,192 1410,795 1605,1150 -879,-9 -609,60 -1245,401l-763 -302c-10,-490 63,-1038 -198,-1337 -283,-325 -767,-265 -1089,-529zm-7413 -1366c403,215 -76,118 512,597 409,332 166,280 707,272 633,-8 660,423 1001,688 130,101 216,122 355,240 -90,196 -287,340 -464,562 -254,319 -271,334 -307,822 -737,-199 55,-95 -698,-112 -479,-12 -76,-497 -611,-825 -327,-200 -577,-100 -1010,-293 -34,-435 58,-209 67,-503 11,-319 -162,-98 16,-503 159,-362 194,-716 432,-945zm-7142 1022c0,0 -47,-276 322,0 -192,103 -115,93 -322,0zm14224 805c-697,-137 -494,-1027 -372,-1250 202,96 189,-117 179,245 -12,396 -99,-234 -78,372 11,308 158,224 271,633zm-16061 -319c-391,268 -676,267 -897,659 -567,1003 -80,1352 -1018,1648 -1386,436 -243,1656 -1426,2005 -1271,374 -591,1001 -1251,2365 -86,179 -42,249 -299,187 -34,-8 -42,-99 -440,-49l-121 387 -538 -15c-459,-425 -777,-367 -1483,-279 -515,65 -936,262 -1528,344 -199,-186 -326,-270 -519,-510 169,-263 397,-489 607,-773l600 -891c385,312 187,311 -17,859 -88,238 -126,770 -70,973l404 1c221,-834 -174,-70 306,-1260 43,-108 81,-285 123,-402 1200,-358 1163,158 1389,-1169 48,-286 211,-384 242,-732 491,15 734,-3 956,-326 506,-735 -119,-1376 1135,-1640l191 -49c25,-9 152,-76 170,-85 595,-280 669,-552 681,-1293 626,-314 696,-473 1445,-631 493,-104 1065,-468 1562,-448l-204 1124zm11792 -106c-168,-365 -177,-211 456,-1016 26,44 262,-52 -49,582 -279,568 -141,353 -407,434zm-7791 -896c11,-92 182,-200 108,-4 -42,111 -130,191 -108,4zm-2334 1111c1247,173 725,175 1406,667l412 373 -526 498 58 451c-405,375 -248,529 -863,628 -285,-626 -548,-293 -849,-867 -150,-287 -27,-376 -363,-497 -569,-205 -1125,294 -694,-773 142,-351 204,-265 459,-462 -126,-537 -87,-257 53,-649 156,-438 -54,-431 520,-534 -255,719 -9,780 387,1165zm7687 7594l77 420c-581,14 -1155,30 -1744,84 -506,46 -1067,-99 -1460,-433l95 -779c145,63 283,163 430,174 473,36 22,36 420,-168 -55,366 -217,533 119,828 237,209 511,215 790,95 -73,-364 -253,-248 -212,-654 36,-358 590,-1002 842,-1141 318,-175 1052,-283 1190,-790l158 -803c-37,-918 43,-809 637,-1238 2409,-1741 -41,-1145 1840,-2893 378,-351 600,-880 756,-1295 61,-161 57,-279 65,-457 3,-66 -1,-200 6,-254 86,-584 1240,87 1496,255 -63,402 -144,206 -230,657 -53,279 -32,558 -154,789 -139,261 -671,613 -788,1016 -255,879 229,717 -625,1191 -406,225 -76,145 -370,481 -550,626 -423,291 -630,1188 -49,210 -170,420 -255,680 -233,710 -560,377 -1054,768 -791,625 48,762 -732,2011 -175,279 -289,272 -667,268zm-8371 -9049l439 -169c314,-103 275,-146 455,83 -228,153 -168,63 -504,148 -565,142 -244,69 -390,-62zm9893 -514c-3,343 -12,384 -177,593 -22,-35 -167,85 -35,-277 31,-86 165,-255 212,-316zm-8786 895l192 -534c179,-338 66,-255 348,-289 -133,328 -221,611 -540,823zm437 716l-240 -80c284,-264 555,-931 710,-1316 143,-354 -63,-300 380,-298l-716 1503c-101,202 -76,124 -134,191zm9730 -1872c119,-259 118,-246 422,-86 -105,208 -120,329 -422,86zm-9285 8949c-521,732 -244,509 -1129,860 64,339 14,223 370,307 -107,83 259,289 -692,6 -191,-56 -533,-165 -726,-213l-1385 -496c-554,-202 -121,-462 -974,-931 -374,-207 -1045,-309 -1481,-410 -184,-1521 -192,-318 -364,-1102 1096,-555 650,107 1204,-943 745,252 305,705 867,1280 685,700 671,352 985,484 98,41 196,178 314,264 -24,334 -3,143 -59,327 -141,469 -150,212 -33,891l491 115c71,-473 18,-315 -81,-697 441,-675 191,-186 387,-734 100,-280 825,-375 1159,-743 425,-470 219,-920 381,-1421 260,-805 1558,-469 1587,-2007 808,-665 845,-725 1136,-1894 63,-249 186,-514 346,-687 8,-5 1173,-398 1294,-421 2,-521 231,-831 244,-1371l1910 65 -11 522c-454,250 -739,325 -919,870 -516,1567 -760,869 -1352,1498 -440,468 77,999 -1123,1715 -813,485 -295,1029 -264,1253 70,488 -420,1013 -758,1168 -561,257 -576,543 -905,986 -458,619 -433,534 -419,1459zm7904 -8688l35 -658c394,-132 663,-43 1026,17 -215,467 -168,247 -635,210 -83,73 -139,116 -222,209 -134,149 -41,86 -204,222zm-6232 124l-310 -306c-323,167 -476,442 -656,719 -260,401 27,124 -322,277l547 -1053c382,-184 577,-83 933,-207 351,-122 631,-169 1006,-185 -80,264 -120,242 -153,339 -104,311 273,424 -804,654 162,-361 470,-394 291,-770 -288,172 -397,221 -532,532zm5400 307c-350,-83 -438,-123 -381,-584 65,-530 -8,-638 432,-615 -73,347 -305,500 -177,871 110,320 39,-161 126,328zm13161 11903c825,-18 1269,-13 2110,-225l1439 -958c247,-198 134,-204 283,-489 184,-352 150,-111 248,-512 220,-907 509,-929 -55,-1646 -161,-206 -218,-218 -396,-380 -1126,-1026 -1438,-583 -2284,-520 -627,-678 -973,-1504 -1445,-2037 -946,-1068 -945,-1173 -2084,-2126 -1074,-897 -2394,-1513 -3549,-2302 -1017,-694 -2231,-1195 -3362,-1709l-2490 -862 -4665 -171c-1510,-143 -5200,998 -6857,1495 -896,269 -3587,1289 -4178,1676 -402,263 -1691,1131 -1939,1414 -282,321 -454,669 -780,958 -559,494 -686,696 -1196,1278l-1955 3053 -692 -165c-411,330 -733,715 -958,1243 -210,495 -390,1185 -205,1718 151,435 692,965 1116,1101 1662,536 1994,-249 3359,-605 1522,-397 1078,2073 4982,1032 900,-241 1035,-504 2425,349 205,125 379,254 648,372 617,273 1278,137 1851,0 555,-134 1214,-218 1722,-453 1171,-540 2462,404 3610,517 2323,227 2828,-1046 3136,-1048 140,0 1175,725 1875,932 526,156 651,156 1264,105 1321,-110 2320,-948 3416,-484 1228,521 1265,59 2305,104 -45,276 -175,551 -200,713 -112,729 -230,1565 -185,2298 1,10 17,59 17,49 1,-11 16,31 24,46 235,-169 139,-236 238,-539 114,-347 49,-164 276,-415 29,-813 312,-1543 172,-2323 435,-277 142,118 487,-374 375,-534 1025,-580 1587,-232l117 90c2,215 -394,2120 -468,2325 -55,149 -149,270 -210,461 -145,454 -150,1193 -476,1515 -67,66 -741,475 -850,529 -311,154 -806,183 -1136,248l-3269 594c-422,54 -795,115 -1219,170 -1636,210 -3247,-29 -4887,83 -372,25 -839,15 -1192,23 -920,19 -1641,-149 -2502,-139 -1148,13 -3008,80 -4042,-51 -2016,-256 -5402,-67 -7243,-924 -354,-165 -461,-391 -575,-810 -133,-486 -147,-1118 -439,-1537 -430,-617 -288,-929 -884,-1788 -305,-440 -254,-1053 -916,-1045 35,266 327,693 475,1000 184,381 192,151 495,861 178,418 181,760 388,1075 356,542 255,1794 617,2222 542,640 1261,592 2001,839 343,114 704,226 1099,266l2394 270c749,41 2021,29 2721,135 760,116 1970,52 2789,68 944,19 1737,54 2667,90 2335,92 7989,148 10158,-460 1251,-350 3366,-271 4108,-1550 155,-266 245,-767 380,-1090 626,-1484 289,-1142 520,-2231 112,-526 156,-339 264,-1117z"/><path class="fil0" d="M35617 34813c248,-92 195,-12 187,-258l4 -1348c22,-396 174,-1424 -191,-1704 -410,372 -302,2280 -228,2607 23,105 95,280 127,387 66,217 -11,96 101,316z"/><path class="fil0" d="M14785 31714c-11,9 -44,63 -52,46 -9,-17 -35,33 -52,49 215,386 510,1798 628,2341 47,213 219,592 395,287 126,-218 -196,-1278 -246,-1564 -40,-229 2,-1685 -673,-1159z"/><path class="fil0" d="M19405 31790l192 399c311,730 306,1627 428,2065 1,7 131,370 133,373 160,333 -57,80 232,227 166,-343 -3,-483 -20,-890 -19,-449 9,-510 -90,-937 -285,-1245 -290,-1270 -875,-1237z"/><path class="fil0" d="M30022 35446c154,-250 41,-498 37,-969 -4,-347 11,-687 -5,-1034 -44,-959 -4,-1404 -475,-1559 -84,361 196,3502 443,3562z"/><path class="fil0" d="M24393 32067c278,423 242,88 257,773 14,685 -129,2214 525,2373 -12,-294 -143,-249 -154,-733 -20,-914 330,-2912 -628,-2413z"/><path class="fil0" d="M32209 26700c233,-11 203,17 351,-262 104,-194 155,-288 46,-537 -298,129 -344,373 -397,799z"/></g><text x="0" y="50815" fill="#000000" font-size="5px" font-weight="bold" font-family="'Helvetica Neue', Helvetica, Arial-Unicode, Arial, Sans-serif">Created by Alex Muravev</text><text x="0" y="50820" fill="#000000" font-size="5px" font-weight="bold" font-family="'Helvetica Neue', Helvetica, Arial-Unicode, Arial, Sans-serif">from the Noun Project</text></svg>